<?xml version="1.0" encoding="UTF-8"?>
<svg version="1.1" xmlns="http://www.w3.org/2000/svg" width="512" height="512">
<path d="M0 0 C7.46463336 8.35328019 13.74016462 17.36802296 19.8125 26.75 C20.65080763 28.03745293 21.48926991 29.32480517 22.32788086 30.61206055 C28.77454395 40.53016527 35.04642145 50.55080701 41.21679688 60.64306641 C43.43401085 64.25564909 45.68585727 67.84631625 47.9375 71.4375 C48.73715732 72.71733662 49.53664187 73.99728121 50.3359375 75.27734375 C51.85599377 77.71085199 53.38314878 80.13971713 54.9140625 82.56640625 C55.63042312 83.71080308 56.34657955 84.85532775 57.0625 86 C57.67996094 86.98097656 58.29742187 87.96195312 58.93359375 88.97265625 C63.2261697 96.49705613 66.25958797 104.37562887 64.08203125 113.1171875 C60.05128378 124.6606427 51.52883387 134.14128127 43.30859375 142.92578125 C32.36145072 154.93456441 23.21856363 168.84844411 13.625 181.9375 C9.49937903 187.56385021 5.36630539 193.18440035 1.21191406 198.78955078 C-0.26582528 200.78972782 -1.73107003 202.79853109 -3.1953125 204.80859375 C-9.59471577 213.49563697 -14.74307656 219.23642408 -25.375 221.9375 C-27.79391017 222.20764143 -30.22196438 222.40340302 -32.65234375 222.53515625 C-33.33238968 222.57407486 -34.01243561 222.61299347 -34.71308899 222.65309143 C-36.91253783 222.77675002 -39.11239174 222.88874649 -41.3125 223 C-42.84149781 223.08268277 -44.37046908 223.16585766 -45.89941406 223.24951172 C-50.39065523 223.49184808 -54.88263553 223.71710011 -59.375 223.9375 C-60.59912598 223.99824707 -61.82325195 224.05899414 -63.08447266 224.12158203 C-69.84656719 224.4495539 -76.60851864 224.71970346 -83.375 224.9375 C-84.5199292 224.98052246 -84.5199292 224.98052246 -85.68798828 225.02441406 C-87.68728902 225.0958338 -89.68742487 225.14273738 -91.6875 225.1875 C-92.73550781 225.21328125 -93.78351563 225.2390625 -94.86328125 225.265625 C-97.375 224.9375 -97.375 224.9375 -99.24609375 223.64453125 C-100.375 221.9375 -100.375 221.9375 -100.125 218.375 C-99.375 214.9375 -99.375 214.9375 -98.375 212.9375 C-99.179375 213.06125 -99.98375 213.185 -100.8125 213.3125 C-108.07885515 212.54762051 -113.96068708 206.94653583 -118.87109375 201.796875 C-125.06265286 194.14185646 -126.14502374 185.51107879 -125.375 175.9375 C-121.82631501 152.83275243 -107.95796484 132.44723943 -96.09521484 112.82006836 C-93.4718135 108.39490608 -92.27602834 105.02793672 -93.375 99.9375 C-96.40278074 91.33014079 -101.89992119 84.21578894 -107.26000977 76.94848633 C-111.16764812 71.64713291 -114.91070115 66.27213903 -118.5 60.75 C-118.94883545 60.06784424 -119.3976709 59.38568848 -119.86010742 58.68286133 C-123.77227004 52.60936582 -127.42048472 46.7737967 -126.26953125 39.32421875 C-124.36751685 34.24941178 -120.14818478 30.69274571 -116.375 26.9375 C-110.38296649 20.70669476 -105.70294155 14.09748265 -101.16015625 6.78125 C-99.375 3.9375 -99.375 3.9375 -98.375 2.9375 C-96.37547242 2.89403201 -94.37460012 2.897508 -92.375 2.9375 C-91.385 2.9375 -90.395 2.9375 -89.375 2.9375 C-88.715 2.2775 -88.055 1.6175 -87.375 0.9375 C-85.2233429 0.51390076 -85.2233429 0.51390076 -82.52075195 0.26733398 C-81.50821854 0.17060898 -80.49568512 0.07388397 -79.45246887 -0.02577209 C-78.35053696 -0.12168137 -77.24860504 -0.21759064 -76.11328125 -0.31640625 C-74.97529587 -0.42218491 -73.83731049 -0.52796356 -72.6648407 -0.63694763 C-69.00643978 -0.9746767 -65.34702886 -1.29974594 -61.6875 -1.625 C-59.27011049 -1.84752866 -56.8527917 -2.07082706 -54.43554688 -2.29492188 C-7.60006879 -6.60005974 -7.60006879 -6.60005974 0 0 Z M-38.125 10.7421875 C-39.18614014 10.82622833 -40.24728027 10.91026917 -41.34057617 10.99685669 C-43.55911991 11.17428703 -45.77746384 11.35423264 -47.99560547 11.53662109 C-51.39351005 11.81401108 -54.7923301 12.07724788 -58.19140625 12.33984375 C-60.35684014 12.51476911 -62.5222075 12.6905206 -64.6875 12.8671875 C-65.70102539 12.94436005 -66.71455078 13.02153259 -67.75878906 13.1010437 C-68.70077148 13.18097565 -69.64275391 13.26090759 -70.61328125 13.34326172 C-71.43868408 13.40988007 -72.26408691 13.47649841 -73.11450195 13.5451355 C-75.51553318 13.96189296 -77.26327469 14.74312446 -79.375 15.9375 C-74.02952916 24.0900896 -68.49127 32.07496866 -62.78613281 39.97900391 C-61.28727693 42.05924991 -59.79571777 44.14460762 -58.3046875 46.23046875 C-48.10626525 60.46638045 -37.47378429 74.3434105 -26.6171875 88.08203125 C-25.87726563 89.02433594 -25.13734375 89.96664062 -24.375 90.9375 C-23.77945313 91.60136719 -23.18390625 92.26523438 -22.5703125 92.94921875 C-20.87611619 95.76734268 -21.11276216 97.6778369 -21.375 100.9375 C-22.60571289 103.77636719 -22.60571289 103.77636719 -24.34765625 106.734375 C-24.99234863 107.84458008 -25.63704102 108.95478516 -26.30126953 110.09863281 C-27.01316068 111.29503237 -27.72524252 112.49131849 -28.4375 113.6875 C-29.16907853 114.9377328 -29.89936555 116.18872215 -30.62841797 117.44042969 C-32.1313866 120.01733503 -33.64091475 122.59021658 -35.15576172 125.16015625 C-37.85520082 129.74541675 -40.50431044 134.35885 -43.15380859 138.97314453 C-49.05654917 149.25025143 -55.02757708 159.4870613 -61.01147461 169.71704102 C-66.44877602 179.02987397 -71.79840921 188.39213125 -77.13452148 197.76318359 C-77.77462158 198.8867627 -78.41472168 200.0103418 -79.07421875 201.16796875 C-79.92246216 202.65913208 -79.92246216 202.65913208 -80.7878418 204.18041992 C-81.85290441 206.03055869 -82.95149943 207.86176328 -84.08129883 209.6730957 C-85.54035612 211.79227632 -85.54035612 211.79227632 -85.375 213.9375 C-77.99119591 213.55749923 -70.60809052 213.16560201 -63.2253418 212.765625 C-60.71637102 212.63108013 -58.20725532 212.4992087 -55.69799805 212.37011719 C-52.08079824 212.18355263 -48.4642373 211.98721975 -44.84765625 211.7890625 C-43.73479752 211.73376373 -42.62193878 211.67846497 -41.47535706 211.62149048 C-30.732535 211.31838924 -30.732535 211.31838924 -21.09765625 207.265625 C-20.54980469 206.57984375 -20.00195312 205.8940625 -19.4375 205.1875 C-18.78265625 204.37667969 -18.1278125 203.56585938 -17.453125 202.73046875 C-13.82187098 197.85011796 -10.27481075 192.9225021 -6.78613281 187.93994141 C-4.2439549 184.33251178 -1.65077999 180.76192008 0.9375 177.1875 C2.04699309 175.65373125 3.15636704 174.11987631 4.265625 172.5859375 C4.82056641 171.81862305 5.37550781 171.05130859 5.94726562 170.26074219 C7.60873916 167.96001719 9.26594432 165.65627934 10.921875 163.3515625 C29.19395192 137.93748326 29.19395192 137.93748326 37.4375 128.1875 C42.66142232 121.88834412 48.74725397 114.32335056 49.625 105.9375 C48.13411676 94.19941925 39.74429433 83.24863513 32.84375 74.0390625 C30.18933822 70.32849393 27.78411407 66.49754069 25.375 62.625 C20.27518616 54.46900743 15.05762488 46.39448613 9.75378418 38.37002563 C8.88836904 37.05835949 8.02589224 35.74474909 7.16662598 34.42904663 C-1.51052353 19.89927551 -1.51052353 19.89927551 -14.375 9.9375 C-22.23318691 9.26234832 -30.28176748 10.1034478 -38.125 10.7421875 Z M-92.375 10.9375 C-93.87128963 13.2527465 -95.31910348 15.58213263 -96.75 17.9375 C-102.0020492 26.4771654 -107.62996019 34.72405905 -113.375 42.9375 C-112.715 44.2575 -112.055 45.5775 -111.375 46.9375 C-110.5396875 46.24914062 -110.5396875 46.24914062 -109.6875 45.546875 C-101.81312606 39.21545271 -95.6008328 35.41091819 -85.375 34.9375 C-85.1328125 37.25390625 -85.1328125 37.25390625 -85.375 39.9375 C-86.9921875 41.52734375 -86.9921875 41.52734375 -89.25 42.875 C-90.0646875 43.37515625 -90.879375 43.8753125 -91.71875 44.390625 C-92.5953125 44.90109375 -93.471875 45.4115625 -94.375 45.9375 C-96.16750698 46.99858172 -97.95919376 48.06105041 -99.75 49.125 C-100.56210938 49.59292969 -101.37421875 50.06085938 -102.2109375 50.54296875 C-104.2304517 51.84435245 -105.75965941 53.17104691 -107.375 54.9375 C-106.055 56.2575 -104.735 57.5775 -103.375 58.9375 C-102.57578125 58.42960937 -101.7765625 57.92171875 -100.953125 57.3984375 C-93.61038513 52.79629772 -86.19807215 48.68779718 -78.375 44.9375 C-77.04033245 44.27350847 -75.70644834 43.6079234 -74.375 42.9375 C-75.64193285 39.53902061 -77.09731787 36.60151458 -79.08984375 33.57421875 C-79.61126953 32.76919922 -80.13269531 31.96417969 -80.66992188 31.13476562 C-81.75843428 29.4715808 -82.84955107 27.81009735 -83.94335938 26.15039062 C-87.14511715 21.1957593 -89.5234359 16.54380385 -91.375 10.9375 C-91.705 10.9375 -92.035 10.9375 -92.375 10.9375 Z M-72.375 45.9375 C-72.74975464 46.84640991 -72.74975464 46.84640991 -73.13208008 47.77368164 C-74.57512251 50.28589634 -75.77797767 51.10876678 -78.26171875 52.55859375 C-79.4228418 53.24985352 -79.4228418 53.24985352 -80.60742188 53.95507812 C-81.41759766 54.42365234 -82.22777344 54.89222656 -83.0625 55.375 C-88.6909444 58.68234182 -94.11849467 62.06021159 -99.375 65.9375 C-97.395 69.5675 -95.415 73.1975 -93.375 76.9375 C-92.715 75.6175 -92.055 74.2975 -91.375 72.9375 C-83.47779788 66.64490867 -72.56341497 62.01128046 -62.375 62.9375 C-62.86336297 67.51626124 -62.86336297 67.51626124 -65.12158203 69.37548828 C-66.24089111 69.93598877 -66.24089111 69.93598877 -67.3828125 70.5078125 C-68.61644531 71.14009766 -68.61644531 71.14009766 -69.875 71.78515625 C-71.174375 72.41744141 -71.174375 72.41744141 -72.5 73.0625 C-73.34304687 73.49175781 -74.18609375 73.92101562 -75.0546875 74.36328125 C-79.75775582 76.73672411 -84.50932413 78.92002464 -89.375 80.9375 C-86.990455 87.2688781 -84.20375414 93.10874586 -79.375 97.9375 C-74.88118518 99.34415118 -70.96649982 98.70274997 -66.375 97.9375 C-65.68599609 97.82825195 -64.99699219 97.71900391 -64.28710938 97.60644531 C-60.63449834 97.02169996 -56.99892333 96.37428214 -53.3671875 95.671875 C-48.72096584 94.78625096 -44.08918014 94.31164128 -39.375 93.9375 C-41.7792893 88.01408334 -44.48440424 83.01688891 -48.375 77.9375 C-49.09236328 78.99517578 -49.09236328 78.99517578 -49.82421875 80.07421875 C-53.16790991 83.82755048 -56.91800311 86.15223138 -61.1875 88.75 C-62.36022461 89.50313477 -62.36022461 89.50313477 -63.55664062 90.27148438 C-68.41725161 93.25607007 -71.65472562 94.6777708 -77.375 93.9375 C-78.375 92.9375 -78.375 92.9375 -78.4375 89.375 C-78.416875 88.240625 -78.39625 87.10625 -78.375 85.9375 C-75.81373936 84.643326 -73.25106642 83.35209216 -70.6875 82.0625 C-69.96626953 81.69769531 -69.24503906 81.33289063 -68.50195312 80.95703125 C-62.82163483 78.10390334 -57.73143588 75.82444454 -51.375 74.9375 C-53.63856435 70.95421469 -56.28487997 67.39300474 -59.125 63.8125 C-63.13440367 58.69898297 -66.72505795 53.44952206 -70.09765625 47.88671875 C-70.51917969 47.24347656 -70.94070312 46.60023438 -71.375 45.9375 C-71.705 45.9375 -72.035 45.9375 -72.375 45.9375 Z M-48.1875 105.3125 C-58.16728355 107.28065722 -68.2471707 108.11468773 -78.375 108.9375 C-79.21486084 110.87217942 -80.04668027 112.81035129 -80.875 114.75 C-81.3390625 115.82894531 -81.803125 116.90789062 -82.28125 118.01953125 C-83.55049303 120.88632024 -83.55049303 120.88632024 -83.375 123.9375 C-81.90740234 122.92429687 -81.90740234 122.92429687 -80.41015625 121.890625 C-62.91805046 109.9375 -62.91805046 109.9375 -55.375 109.9375 C-55.69638144 112.84971024 -55.9318052 114.49011423 -58.02734375 116.60546875 C-63.65997255 120.35092619 -69.44925866 123.68543457 -75.375 126.9375 C-77.69417588 128.22114242 -80.01167912 129.50763574 -82.32666016 130.79882812 C-84.04930016 131.7564435 -85.77964867 132.7001735 -87.51171875 133.640625 C-95.16812852 138.28371576 -98.02651297 144.94326442 -101.375 152.9375 C-97.85708291 151.29243086 -94.69594467 149.23150996 -91.4375 147.125 C-83.36053294 142.04181224 -74.88475573 138.28388867 -65.375 136.9375 C-65.59667969 139.26269531 -65.59667969 139.26269531 -66.375 141.9375 C-68.30175781 143.46386719 -68.30175781 143.46386719 -70.828125 144.734375 C-71.75181885 145.21430908 -72.6755127 145.69424316 -73.62719727 146.1887207 C-75.11110962 146.93061646 -75.11110962 146.93061646 -76.625 147.6875 C-84.52938566 151.77962449 -91.79156827 156.02663653 -98.81640625 161.48828125 C-101.375 162.9375 -101.375 162.9375 -104.21484375 162.66796875 C-104.92769531 162.42691406 -105.64054687 162.18585938 -106.375 161.9375 C-107.07210731 163.22400706 -107.75742876 164.51690665 -108.4375 165.8125 C-108.82035156 166.53179687 -109.20320313 167.25109375 -109.59765625 167.9921875 C-109.85417969 168.63414062 -110.11070313 169.27609375 -110.375 169.9375 C-110.045 170.5975 -109.715 171.2575 -109.375 171.9375 C-108.86114746 171.70562988 -108.34729492 171.47375977 -107.81787109 171.23486328 C-105.46325156 170.17441006 -103.10665276 169.11842659 -100.75 168.0625 C-99.94175781 167.69769531 -99.13351563 167.33289063 -98.30078125 166.95703125 C-86.29632857 161.58918655 -86.29632857 161.58918655 -80.375 161.9375 C-80.375 165.9375 -80.375 165.9375 -81.78125 167.359375 C-86.90380833 170.60875901 -92.17813261 173.5238134 -97.5625 176.3125 C-98.23925781 176.67053711 -98.91601562 177.02857422 -99.61328125 177.39746094 C-103.68961316 179.4456179 -106.7057923 180.44938351 -111.375 179.9375 C-112.035 179.6075 -112.695 179.2775 -113.375 178.9375 C-113.895895 184.04227099 -113.97763447 187.73497008 -110.875 192 C-110.05 192.969375 -109.225 193.93875 -108.375 194.9375 C-107.71628906 194.22335937 -107.05757812 193.50921875 -106.37890625 192.7734375 C-103.05777189 189.45815227 -99.27680306 187.04064362 -95.3125 184.5625 C-94.60544922 184.09972656 -93.89839844 183.63695312 -93.16992188 183.16015625 C-92.48349609 182.72832031 -91.79707031 182.29648437 -91.08984375 181.8515625 C-90.47230225 181.4592041 -89.85476074 181.0668457 -89.21850586 180.66259766 C-86.82741934 179.72212263 -85.72097893 179.93713803 -83.375 180.9375 C-82.715 181.9275 -82.055 182.9175 -81.375 183.9375 C-81.01897705 183.27556641 -80.6629541 182.61363281 -80.29614258 181.93164062 C-76.96786801 175.74455225 -73.6373734 169.55866577 -70.304245 163.37419128 C-68.75014775 160.49049204 -67.19692386 157.60633469 -65.64550781 154.72119141 C-59.06590446 142.48595405 -52.38804378 130.31667016 -45.51147461 118.24536133 C-44.9985083 117.34454834 -44.48554199 116.44373535 -43.95703125 115.515625 C-43.50561768 114.72575195 -43.0542041 113.93587891 -42.58911133 113.12207031 C-40.06523257 108.79960528 -40.06523257 108.79960528 -39.375 103.9375 C-42.39675732 103.9375 -45.22841866 104.70689267 -48.1875 105.3125 Z M-83.375 183.9375 C-82.375 185.9375 -82.375 185.9375 -82.375 185.9375 Z M-88.52734375 188.4921875 C-89.44483398 189.29076172 -89.44483398 189.29076172 -90.38085938 190.10546875 C-91.01830078 190.66878906 -91.65574219 191.23210937 -92.3125 191.8125 C-93.57034419 192.91551291 -94.82941509 194.01712884 -96.08984375 195.1171875 C-96.64792725 195.60944824 -97.20601074 196.10170898 -97.78100586 196.60888672 C-99.375 197.9375 -99.375 197.9375 -102.375 199.9375 C-100.065 202.5775 -97.755 205.2175 -95.375 207.9375 C-92.43484149 204.01728865 -90.07606044 200.07152802 -87.6875 195.8125 C-87.27177734 195.08417969 -86.85605469 194.35585938 -86.42773438 193.60546875 C-86.03521484 192.90808594 -85.64269531 192.21070313 -85.23828125 191.4921875 C-84.70134644 190.54061768 -84.70134644 190.54061768 -84.15356445 189.56982422 C-83.23149844 187.93805263 -83.23149844 187.93805263 -83.375 185.9375 C-86.00046231 185.9375 -86.57687719 186.77618322 -88.52734375 188.4921875 Z " fill="#000000" transform="translate(198.375,146.0625)"/>
<path d="M0 0 C1.66672959 2.0999164 3.21545231 4.16926016 4.73046875 6.37109375 C5.1606279 6.98520615 5.59078705 7.59931854 6.03398132 8.23204041 C10.58227368 14.76107512 14.96947903 21.39582878 19.3125 28.0625 C19.72108246 28.68762482 20.12966492 29.31274963 20.55062866 29.95681763 C26.26982547 38.70915084 31.88640034 47.51690673 37.34106445 56.43725586 C40.08578942 60.92434192 42.87293511 65.37664722 45.73046875 69.79296875 C46.67345825 71.25391968 46.67345825 71.25391968 47.63549805 72.74438477 C48.83262833 74.59392518 50.0354405 76.43980727 51.24536133 78.28100586 C57.29071557 87.63739786 63.95705592 98.42212295 62 110 C58.35375855 119.69282994 52.84899195 127.29488406 46 135 C37.35210951 144.80094256 29.44676491 154.9559848 21.78222656 165.54443359 C18.87761806 169.54642706 15.93780553 173.52234699 13 177.5 C9.42348705 182.34268191 5.85675913 187.19151922 2.32421875 192.06640625 C-16.34181764 217.76457802 -16.34181764 217.76457802 -26.72363281 219.69091797 C-28.13197522 219.84707133 -29.54202494 219.98831226 -30.953125 220.1171875 C-31.72899963 220.19532684 -32.50487427 220.27346619 -33.30426025 220.35397339 C-42.4547689 221.22240407 -51.63313891 221.63232679 -60.81494141 222.00537109 C-63.7610877 222.12545192 -66.70668003 222.25537721 -69.65234375 222.38671875 C-75.10061779 222.6243307 -80.5495155 222.8211939 -86 223 C-86.75224854 223.02799683 -87.50449707 223.05599365 -88.27954102 223.08483887 C-90.25355317 223.15403269 -92.22837093 223.19908167 -94.203125 223.2421875 C-95.79882324 223.28255127 -95.79882324 223.28255127 -97.42675781 223.32373047 C-100 223 -100 223 -101.87792969 221.70751953 C-103 220 -103 220 -102.75 216.4375 C-102 213 -102 213 -101 211 C-101.969375 210.95875 -102.93875 210.9175 -103.9375 210.875 C-111.71974009 209.72731611 -117.73817103 203.86735737 -122.5625 198.015625 C-127.4622097 191.14537988 -128.79390916 183.30728131 -128 175 C-124.51514455 155.06751466 -114.63945012 138.15063013 -104.48828125 120.93359375 C-101.26325521 115.46112784 -101.26325521 115.46112784 -98.0859375 109.9609375 C-97.69583496 109.28208496 -97.30573242 108.60323242 -96.90380859 107.90380859 C-94.78140572 103.43311772 -95.30237476 99.99186212 -96.86328125 95.53515625 C-101.30565762 85.72891987 -108.0370176 77.17015991 -114.26220703 68.44921875 C-116.78501312 64.89361455 -119.25198752 61.30332063 -121.6875 57.6875 C-122.08485352 57.10830811 -122.48220703 56.52911621 -122.89160156 55.93237305 C-126.90319402 49.94908464 -129.91730766 44.50671009 -128.7578125 37.1796875 C-127.62132423 33.91081917 -125.6451098 32.19740275 -123.09375 29.93359375 C-115.61405384 23.02603853 -108.91272221 13.90237263 -103.890625 5.04296875 C-102.9375 3.375 -102.9375 3.375 -101 1 C-97.9375 0.625 -97.9375 0.625 -95 1 C-91.81509993 1.2773501 -91.81509993 1.2773501 -89 -1 C-86.76605225 -1.42359924 -86.76605225 -1.42359924 -84.12402344 -1.67016602 C-83.1315863 -1.76689102 -82.13914917 -1.86361603 -81.11663818 -1.96327209 C-80.04174133 -2.05918137 -78.96684448 -2.15509064 -77.859375 -2.25390625 C-76.74500061 -2.35968491 -75.63062622 -2.46546356 -74.48248291 -2.57444763 C-70.90567963 -2.91171735 -67.32789115 -3.23699659 -63.75 -3.5625 C-61.38534776 -3.78507645 -59.02076344 -4.00837572 -56.65625 -4.23242188 C-9.91409664 -8.62275313 -9.91409664 -8.62275313 0 0 Z M-95 9 C-96.56598545 11.30454219 -98.01365852 13.60913515 -99.4375 16 C-104.64644849 24.55797426 -110.25909112 32.79246487 -116 41 C-115.34 42.32 -114.68 43.64 -114 45 C-113.1646875 44.31164062 -113.1646875 44.31164062 -112.3125 43.609375 C-104.43812606 37.27795271 -98.2258328 33.47341819 -88 33 C-87.76953125 35.32421875 -87.76953125 35.32421875 -88 38 C-89.51171875 39.51953125 -89.51171875 39.51953125 -91.6875 40.8125 C-92.49445313 41.30621094 -93.30140625 41.79992187 -94.1328125 42.30859375 C-95.07898438 42.86675781 -96.02515625 43.42492187 -97 44 C-98.16575419 44.71731002 -99.32973503 45.43750781 -100.4921875 46.16015625 C-103.65177235 48.1227785 -106.82315279 50.06541298 -110 52 C-109.01 53.65 -108.02 55.3 -107 57 C-104.32468972 55.69513325 -101.75436506 54.29676598 -99.20703125 52.7578125 C-98.13678711 52.11779297 -98.13678711 52.11779297 -97.04492188 51.46484375 C-95.57444398 50.58229971 -94.10564581 49.69694993 -92.63867188 48.80859375 C-87.57904052 45.79183951 -82.43272975 43.2754303 -77 41 C-78.32714854 37.41267002 -79.92728622 34.33719069 -82.00390625 31.12890625 C-82.57947266 30.22462891 -83.15503906 29.32035156 -83.74804688 28.38867188 C-84.95705007 26.50554203 -86.17059409 24.6253197 -87.38867188 22.74804688 C-87.96294922 21.84248047 -88.53722656 20.93691406 -89.12890625 20.00390625 C-89.65556885 19.18736572 -90.18223145 18.3708252 -90.72485352 17.52954102 C-92.16300734 14.67663813 -92.62334024 12.1575735 -93 9 C-93.66 9 -94.32 9 -95 9 Z M-39.6171875 8.83984375 C-41.20746262 8.96946251 -41.20746262 8.96946251 -42.8298645 9.10169983 C-45.05016454 9.28367369 -47.27028778 9.46781669 -49.49023438 9.65405273 C-52.88627727 9.93844438 -56.28290441 10.21483938 -59.6796875 10.49023438 C-61.84639297 10.66880065 -64.01306107 10.84782103 -66.1796875 11.02734375 C-67.69693924 11.1508445 -67.69693924 11.1508445 -69.24484253 11.27684021 C-70.18997711 11.35684769 -71.13511169 11.43685516 -72.10888672 11.51928711 C-73.34818436 11.62254555 -73.34818436 11.62254555 -74.61251831 11.72789001 C-77.11405456 12.01299921 -79.53904483 12.47293605 -82 13 C-79.14453056 18.1801575 -76.00401576 23.00526738 -72.5625 27.8125 C-72.03881836 28.54823242 -71.51513672 29.28396484 -70.97558594 30.04199219 C-69.32051189 32.36381621 -67.66026443 34.68188573 -66 37 C-64.96222426 38.45702034 -63.92446361 39.91405142 -62.88671875 41.37109375 C-52.08144646 56.48697099 -40.82958184 71.27806165 -29.27294922 85.82714844 C-23.46723718 93.1468946 -23.46723718 93.1468946 -24 99 C-25.06298828 101.59521484 -25.06298828 101.59521484 -26.5703125 104.2109375 C-27.12968506 105.19570068 -27.68905762 106.18046387 -28.26538086 107.19506836 C-28.87905518 108.2444458 -29.49272949 109.29382324 -30.125 110.375 C-30.75736572 111.4791626 -31.38973145 112.5833252 -32.04125977 113.72094727 C-34.01363687 117.15568401 -36.00438057 120.57872626 -38 124 C-39.17329145 126.02206906 -40.34647324 128.04420175 -41.51953125 130.06640625 C-43.81615019 134.01648594 -46.122169 137.96091176 -48.43359375 141.90234375 C-52.15334924 148.25046635 -55.82893098 154.62363331 -59.5 161 C-65.55861029 171.51803751 -71.65778784 182.01178924 -77.78125 192.4921875 C-78.29945313 193.38131836 -78.81765625 194.27044922 -79.3515625 195.18652344 C-80.54643935 197.22588376 -81.75080583 199.25969364 -82.9609375 201.29003906 C-83.60289062 202.3725293 -84.24484375 203.45501953 -84.90625 204.5703125 C-85.49728516 205.56047363 -86.08832031 206.55063477 -86.69726562 207.57080078 C-88.15753657 209.83434565 -88.15753657 209.83434565 -88 212 C-80.47342157 211.64550042 -72.94802088 211.27105834 -65.4230957 210.88305664 C-62.86570462 210.75351321 -60.30808211 210.62845439 -57.75024414 210.50805664 C-54.06325696 210.33371574 -50.3774166 210.14300182 -46.69140625 209.94921875 C-45.55667374 209.89908127 -44.42194122 209.84894379 -43.25282288 209.79728699 C-35.57793317 209.37224556 -28.30524919 208.73425811 -22.21875 203.69921875 C-19.84479957 200.81119103 -17.63958643 197.8789963 -15.5 194.8125 C-14.62169929 193.56337609 -13.7427611 192.31470023 -12.86328125 191.06640625 C-12.40002441 190.40656738 -11.93676758 189.74672852 -11.45947266 189.06689453 C-8.89841199 185.43993909 -6.29128918 181.84634004 -3.6875 178.25 C-2.57801834 176.71622298 -1.46864438 175.18236805 -0.359375 173.6484375 C0.19556641 172.88112305 0.75050781 172.11380859 1.32226562 171.32324219 C2.98373916 169.02251719 4.64094432 166.71877934 6.296875 164.4140625 C14.78643968 152.60646022 23.32266578 140.83240598 32.39648438 129.46411133 C42.94057081 117.51760631 42.94057081 117.51760631 47 103 C43.98762666 90.81446399 36.47490768 80.54996913 29.39794922 70.41088867 C25.80298437 65.23834293 22.40131555 59.96590602 19.0625 54.625 C13.22054774 45.29364234 7.19584009 36.10014014 1 27 C0.41992188 26.14075928 0.41992188 26.14075928 -0.171875 25.26416016 C-4.67889365 18.62406429 -9.63618842 11.68190579 -17 8 C-24.5425343 7.56260333 -32.10413384 8.20564853 -39.6171875 8.83984375 Z M-75 44 C-75.23412598 44.59619141 -75.46825195 45.19238281 -75.70947266 45.80664062 C-77.31893542 48.54205747 -78.92446692 49.48547866 -81.6484375 51.09375 C-82.57140625 51.64933594 -83.494375 52.20492187 -84.4453125 52.77734375 C-85.41210938 53.34582031 -86.37890625 53.91429687 -87.375 54.5 C-89.28174354 55.63020686 -91.18550586 56.76546165 -93.0859375 57.90625 C-93.9320459 58.40447266 -94.7781543 58.90269531 -95.64990234 59.41601562 C-98.0836671 61.05639229 -99.9973159 62.86272536 -102 65 C-100.02 67.97 -98.04 70.94 -96 74 C-95.4225 73.29875 -94.845 72.5975 -94.25 71.875 C-87.72533326 65.33169135 -77.21260841 61.16547963 -68.0625 60.875 C-66.5465625 60.936875 -66.5465625 60.936875 -65 61 C-64.505 63.475 -64.505 63.475 -64 66 C-64.83660156 66.24878906 -65.67320312 66.49757813 -66.53515625 66.75390625 C-70.4118211 68.14810702 -73.84391766 69.94512729 -77.4375 71.9375 C-82.20678835 74.56866317 -86.96020832 76.92555672 -92 79 C-89.615455 85.3313781 -86.82875414 91.17124586 -82 96 C-77.50618518 97.40665118 -73.59149982 96.76524997 -69 96 C-68.31099609 95.89075195 -67.62199219 95.78150391 -66.91210938 95.66894531 C-63.25949834 95.08419996 -59.62392333 94.43678214 -55.9921875 93.734375 C-51.34596584 92.84875096 -46.71418014 92.37414128 -42 92 C-44.64217709 83.24778838 -49.97813422 76.77937718 -55.6171875 69.7109375 C-56.53664006 68.5574365 -57.45590791 67.40378824 -58.375 66.25 C-58.83503418 65.67411133 -59.29506836 65.09822266 -59.76904297 64.50488281 C-63.79058791 59.40691321 -67.39985195 54.07848366 -70.91552734 48.62207031 C-71.92174792 47.06696449 -72.95775689 45.53119667 -74 44 C-74.33 44 -74.66 44 -75 44 Z M-52.98193359 103.81274414 C-57.11298934 104.61870413 -61.08647466 105.1007601 -65.296875 105.22265625 C-74.84526374 105.13926825 -74.84526374 105.13926825 -82.63671875 109.72265625 C-84.23363526 112.84576337 -85.35873489 115.55381192 -86 119 C-85.67 119.66 -85.34 120.32 -85 121 C-83.92621094 120.31292969 -82.85242188 119.62585938 -81.74609375 118.91796875 C-80.31006515 118.00754539 -78.87385767 117.09740411 -77.4375 116.1875 C-76.73302734 115.73568359 -76.02855469 115.28386719 -75.30273438 114.81835938 C-64.50285128 108 -64.50285128 108 -58 108 C-58.32138144 110.91221024 -58.5568052 112.55261423 -60.65234375 114.66796875 C-66.28497255 118.41342619 -72.07425866 121.74793457 -78 125 C-80.31917588 126.28364242 -82.63667912 127.57013574 -84.95166016 128.86132812 C-86.67430016 129.8189435 -88.40464867 130.7626735 -90.13671875 131.703125 C-97.79312852 136.34621576 -100.65151297 143.00576442 -104 151 C-100.9969549 149.56472109 -98.14409146 147.92463357 -95.27929688 146.23266602 C-86.66297278 141.17140319 -78.01957082 136.39979298 -68 135 C-68.22167969 137.32519531 -68.22167969 137.32519531 -69 140 C-70.92675781 141.52636719 -70.92675781 141.52636719 -73.453125 142.796875 C-74.37681885 143.27680908 -75.3005127 143.75674316 -76.25219727 144.2512207 C-77.73610962 144.99311646 -77.73610962 144.99311646 -79.25 145.75 C-87.15438566 149.84212449 -94.41656827 154.08913653 -101.44140625 159.55078125 C-104 161 -104 161 -106.83984375 160.73046875 C-107.55269531 160.48941406 -108.26554687 160.24835938 -109 160 C-109.69710731 161.28650706 -110.38242876 162.57940665 -111.0625 163.875 C-111.44535156 164.59429687 -111.82820313 165.31359375 -112.22265625 166.0546875 C-112.47917969 166.69664062 -112.73570312 167.33859375 -113 168 C-112.67 168.66 -112.34 169.32 -112 170 C-110.83984375 169.45730469 -109.6796875 168.91460937 -108.484375 168.35546875 C-99.76314255 164.33977587 -91.4826551 160.78497037 -82 159 C-81.57421875 161.21875 -81.57421875 161.21875 -82 164 C-84.28105386 165.79775365 -86.29342773 167.12346273 -88.8125 168.5 C-89.49304443 168.88728271 -90.17358887 169.27456543 -90.87475586 169.67358398 C-106.575588 178.48397693 -106.575588 178.48397693 -114 178 C-114.66 177.67 -115.32 177.34 -116 177 C-116.61669998 183.90703976 -115.11242982 187.47759424 -111 193 C-110.34128906 192.28585937 -109.68257813 191.57171875 -109.00390625 190.8359375 C-105.68277189 187.52065227 -101.90180306 185.10314362 -97.9375 182.625 C-97.23044922 182.16222656 -96.52339844 181.69945312 -95.79492188 181.22265625 C-95.10849609 180.79082031 -94.42207031 180.35898437 -93.71484375 179.9140625 C-93.09730225 179.5217041 -92.47976074 179.1293457 -91.84350586 178.72509766 C-89.45241934 177.78462263 -88.34597893 177.99963803 -86 179 C-85.34 179.99 -84.68 180.98 -84 182 C-83.5035498 181.08226807 -83.5035498 181.08226807 -82.99707031 180.14599609 C-77.07211367 169.19522454 -71.14366367 158.24633674 -65.1875 147.3125 C-64.71562256 146.44488037 -64.24374512 145.57726074 -63.75756836 144.68334961 C-61.14362497 139.88846843 -58.50670145 135.10735906 -55.83995056 130.34169006 C-54.35935295 127.6951931 -52.88342849 125.04609991 -51.40737915 122.39706421 C-50.68299137 121.10058836 -49.95611897 119.80549734 -49.22665405 118.51187134 C-48.20360423 116.69744618 -47.18896737 114.87854032 -46.17578125 113.05859375 C-45.58708252 112.00986084 -44.99838379 110.96112793 -44.3918457 109.88061523 C-43.09171788 107.18982271 -42.41834279 104.94330406 -42 102 C-45.71378943 102 -49.35480361 103.0591585 -52.98193359 103.81274414 Z M-92.75 188.25 C-96.34998253 191.5630274 -99.82026506 194.47016043 -104 197 C-102.70064811 199.89855422 -101.33821878 201.85663278 -99 204 C-98.34 204.66 -97.68 205.32 -97 206 C-95.15984502 202.7121022 -93.32904953 199.41908674 -91.5 196.125 C-90.71302734 194.71927734 -90.71302734 194.71927734 -89.91015625 193.28515625 C-89.41386719 192.38925781 -88.91757812 191.49335938 -88.40625 190.5703125 C-87.94541016 189.74289551 -87.48457031 188.91547852 -87.00976562 188.06298828 C-85.85345683 186.08341625 -85.85345683 186.08341625 -86 184 C-89.17389557 184 -90.48876324 186.1258079 -92.75 188.25 Z " fill="#000000" transform="translate(378,148)"/>
<path d="M0 0 C0.66 0.66 1.32 1.32 2 2 C1.9375 4.375 1.9375 4.375 1 7 C-2.32244149 10.13258769 -6.17549203 12.51707336 -10 15 C-10.81984375 15.53625 -11.6396875 16.0725 -12.484375 16.625 C-17.09022359 19.42027363 -20.46539882 20.79065731 -26 20 C-28 18 -28 18 -28.125 14.375 C-28.08375 13.26125 -28.0425 12.1475 -28 11 C-25.2730819 9.53743341 -22.5430812 8.08071459 -19.8125 6.625 C-19.04357422 6.2125 -18.27464844 5.8 -17.48242188 5.375 C-6.32601951 -0.56231285 -6.32601951 -0.56231285 0 0 Z " fill="#000000" transform="translate(324,221)"/>
</svg>
